<svg id="Layer_1" data-name="Layer 1" xmlns="http://www.w3.org/2000/svg" viewBox="0 0 279.64 185.75"><defs><style>.cls-1{fill:#616b7a;}</style></defs><title>Artboard 1 copy</title><path class="cls-1" d="M41.63,117.55h0c1.22.53,2.45,1,3.67,1.5v-4.44a68.6,68.6,0,0,1-7.15-3.4,37.62,37.62,0,0,0,3.45,6.3Z"/><path class="cls-1" d="M37.08,67.53c.23-.53.46-1.06.7-1.59l1-2.25.1-.21a76.34,76.34,0,0,0-21.39-14.4,79.55,79.55,0,0,0-7.7-2.92h0l-.65.43h0c-.65.43-1.28.87-1.9,1.33h0l0,0h0l0,0H7a4.4,4.4,0,0,0-.54.59h0a7.57,7.57,0,0,0-.42.67,75.09,75.09,0,0,1,8.68,3.05A71.76,71.76,0,0,1,37.08,67.53Z"/><path class="cls-1" d="M27.58,48.12a1.89,1.89,0,0,0,1.71-1c.66-1.17.14-2.41-1.31-3.21a87.44,87.44,0,0,0-10.77-5,10.53,10.53,0,0,1-2.53,3.61A82,82,0,0,1,26,47.63,3.39,3.39,0,0,0,27.58,48.12Z"/><path class="cls-1" d="M17.79,33.54l0,.21a88.42,88.42,0,0,1,25,14.08,119.66,119.66,0,0,1,13.7,13.41,19.92,19.92,0,0,0,15,6.59,22.53,22.53,0,0,0,7.72-1.38c1.53-.89,3.14-1.66,4.58-2.68a20.46,20.46,0,0,0,6.43-25.5c-1.74-3.55-4.43-6.38-7.08-9.24a2.85,2.85,0,0,0-2-1.06,2,2,0,0,0-1.35.56c-1,.86-.87,2.12.2,3.36,1.68,2,3.47,3.84,5,5.93A16.24,16.24,0,0,1,84.79,57a16.83,16.83,0,0,1-13.35,6.56,15.93,15.93,0,0,1-12.2-5.62A104.67,104.67,0,0,0,45.52,44.5a92.32,92.32,0,0,0-24.6-14.14l-.14.11h0l0,0h0l0,0c-1.05.87-2.95,2-2.95,2.75,0,0,0,0,0,.06A1.36,1.36,0,0,1,17.79,33.54Z"/><path class="cls-1" d="M70.83,10c.8,0,1.46-.53,2-1.61.44-.89.86-1.81,1.32-2.7l.48-.88h-.37c-.6,0-1.2,0-1.8,0a46.16,46.16,0,0,0-8.8.89l5.42,3.7A3.16,3.16,0,0,0,70.83,10Z"/><path class="cls-1" d="M49.34,144.61c-1.2-.54-2.41-1.05-3.62-1.53h0c-.08.12-.16.24-.23.36-.32.48-.62,1-.93,1.44l-1.2,1.85c1.86.72,3.7,1.51,5.54,2.37a78.75,78.75,0,0,1,17.52,11.18l.25-.16,1.48-1,0,0h0l1.92-1.23q-2.62-2.26-5.48-4.34A82.37,82.37,0,0,0,49.34,144.61Z"/><path class="cls-1" d="M46.65,153.58a2.91,2.91,0,0,0-1.17-.27,1.92,1.92,0,0,0-1.74,1.05c-.68,1.23-.16,2.46,1.34,3.17a71.31,71.31,0,0,1,13.3,8.11l2-1.33L62,163.2q-1.28-1-2.61-2.07A73.42,73.42,0,0,0,46.65,153.58Z"/><path class="cls-1" d="M53.21,167.58a2.9,2.9,0,0,1,.89.8,1.93,1.93,0,0,1,.12,2c-.62,1.26-1.93,1.54-3.37.7a76.2,76.2,0,0,0-7.09-3.62c-1.25-.56-2.52-1.08-3.8-1.56-.94-.35-2.59-.56-3.35-1.22-.57-.48-.51-4.07.37-4.3s2.62.72,3.46,1.07c1.21.49,2.4,1,3.6,1.53A71.22,71.22,0,0,1,53.21,167.58Z"/><path class="cls-1" d="M59.47,139.28a96.06,96.06,0,0,0-9-4.31,15.75,15.75,0,0,1-.65,1.54h0v0h0v0h0v0h0v0h0a20.14,20.14,0,0,1-1.22,2.14,92.31,92.31,0,0,1,18.13,10,86.3,86.3,0,0,1,7.64,6.08c.26-.25.49-.5.72-.76h0v0h0v0h0l.06-.08h0v0h0v0h0l0,0h0a8.92,8.92,0,0,0,1.39-2.35l-5.73-5.14C66.77,143.76,63.22,141.33,59.47,139.28Z"/><path class="cls-1" d="M16.11,174.92l-.18.07h0a7.79,7.79,0,0,0-4.15,4.16c.81,0,1.62-.07,2.43-.07h0a43.51,43.51,0,0,1,21.32,5.79c.27-.07.55-.15.82-.24h0a16.74,16.74,0,0,0,2.45-1h.06a14.71,14.71,0,0,0,1.53-.88,49.83,49.83,0,0,0-24.26-7.82Z"/><path class="cls-1" d="M29.64,166.94c-.53.61-1.08,1.2-1.65,1.76h0v0h0l0,0h0a24.47,24.47,0,0,1-1.86,1.66,52.83,52.83,0,0,1,18.54,8.18,20.54,20.54,0,0,0,1.34-2.17h0l0-.06h0l0,0h0v0h0c.24-.47.48-.95.7-1.46-2-1.22-4-2.47-6.09-3.55A59.9,59.9,0,0,0,29.64,166.94Z"/><path class="cls-1" d="M13.42,184.33c-1,0-2,0-3,.11,0,.32-.07.65-.11,1h.1c2,0,3.84-.06,5.65-.06,1.08,0,2.15,0,3.21.08l3.89.23h0l1.64.07a39.52,39.52,0,0,0-4-.83A49,49,0,0,0,13.42,184.33Z"/><path class="cls-1" d="M133.72,172.09a1.93,1.93,0,0,0-1-.3,2.67,2.67,0,0,0-2,1.28,58.18,58.18,0,0,1-4.75,5.93,39.45,39.45,0,0,0-5.11,6.45h.1l3.36,0H126a39.25,39.25,0,0,1,3.15-3.72,61.16,61.16,0,0,0,5.14-6.5A2.06,2.06,0,0,0,133.72,172.09Z"/><path class="cls-1" d="M125.08,168.89a2.14,2.14,0,0,0-1.24-.43,2.55,2.55,0,0,0-2,1.16,23.94,23.94,0,0,1-2.18,2.54,45,45,0,0,0-9.51,13.31h4.68c.28-.54.57-1.08.87-1.61a47.68,47.68,0,0,1,4.86-6.44c1.52-1.85,3.24-3.53,4.76-5.37A2.08,2.08,0,0,0,125.08,168.89Z"/><path class="cls-1" d="M112.05,173l-1.36.1h0a11,11,0,0,0-1.43.19h0l-.93.22h-.13a13.82,13.82,0,0,0-2.12.74h0l-.14.06a54.26,54.26,0,0,0-5,9.35q0,.84,0,1.77h3.89c0-.14.11-.27.17-.4a52,52,0,0,1,7.1-12.1Z"/><path class="cls-1" d="M150.37,182.12a2.14,2.14,0,0,0-1.06-.3,2.42,2.42,0,0,0-2,1.38q-.69,1.14-1.44,2.22h5l.05-.08C151.7,184,151.49,182.75,150.37,182.12Z"/><path class="cls-1" d="M245.71,182.44a21.8,21.8,0,0,0-.22,3h.27l7,0h4q-5.59-1.26-11.06-3Z"/><path class="cls-1" d="M262.11,177.11l-.36,0a2.05,2.05,0,0,0-2.13,1.73,2.11,2.11,0,0,0,1.73,2.46c.23.06.46.1.68.14,3.23.59,6.46,1.06,9.69,1.38.09-.26.19-.52.29-.78.4-1.11.82-2.23,1.22-3.35-2.83-.26-5.67-.63-8.5-1.11C263.86,177.41,263,177.22,262.11,177.11Z"/><path class="cls-1" d="M256.35,178.07a2.13,2.13,0,0,0-1.52-2.6c-.32-.12-.66-.21-1-.3-1.82-.49-5.47.67-6.2,2.58,1.68,1,4.19,1.27,6.09,1.79a2.48,2.48,0,0,0,.65.09A2,2,0,0,0,256.35,178.07Z"/><path class="cls-1" d="M153.27,173.66h0a18.57,18.57,0,0,0-3.09,1.07,84.23,84.23,0,0,0,2.57,10.68h4.45a78.54,78.54,0,0,1-2.93-12Z"/><polygon class="cls-1" points="154.25 173.43 154.25 173.43 154.25 173.43 154.25 173.43"/><path class="cls-1" d="M258.12,168.25c-.15.6-.29,1.21-.42,1.82a1.51,1.51,0,0,0-.05.56,1,1,0,0,0,.61.71,12.28,12.28,0,0,0,3.25.67c1.5.26,3,.4,4.54.65,2.9.48,5.81.84,8.71,1.08.16-.64.29-1.27.4-1.91v-.12c.05-.28.09-.57.12-.86v-.11c0-.41.08-.81.1-1.22,0,.29-7.06-.91-7.54-1-2.76-.48-5.48-1.12-8.2-1.78a1.3,1.3,0,0,0-.73,0c-.41.14-.58.61-.69,1Z"/><path class="cls-1" d="M274.93,161.54v-.21h0v-.06c-.05-.37-.1-.74-.16-1.11a91.6,91.6,0,0,1-21.2-4.49c-4.55-1.55-9-3.5-13.41-5.38a12.47,12.47,0,0,0-4.9-1c-2.41,0-5.85.78-7.38,2.79-.15.69,10.9,2.14,11.23,2.19,3.58.59,7,.68,10.58,1.59h.3a10.61,10.61,0,0,1,7,5.26,100.21,100.21,0,0,0,18.35,3.27Q275.13,163,274.93,161.54Z"/><path class="cls-1" d="M242.23,145.76a103.76,103.76,0,0,0,18,6.68A91.83,91.83,0,0,0,274,155c-.21-1.45-.39-2.9-.51-4.35a88.86,88.86,0,0,1-12.16-2.31,117.63,117.63,0,0,1-18-6.7,20,20,0,0,0-8.08-1.73,21.38,21.38,0,0,0-14.76,6.18c-.47.65-1,1.28-1.45,1.92,1.23.74,2.49,1.43,3.78,2a16.58,16.58,0,0,1,12.49-5.86A16.16,16.16,0,0,1,242.23,145.76Z"/><path class="cls-1" d="M235.18,135a29.69,29.69,0,0,1,12.56,3c3.86,1.8,8,3.12,12,4.63a2.35,2.35,0,0,0,.84.16,2,2,0,0,0,1.63-.89,2,2,0,0,0,.42-1.56l-.9-.15h-.17a24.53,24.53,0,0,1-7.54-2.85h0l0,0h-.15a31.7,31.7,0,0,1-4.33-3.1l-1.18-.5a33.25,33.25,0,0,0-13.18-2.9c-7.14,0-13.89,2.7-20.32,7.95-1.07,1.23-2.22,2.51-3.31,3.85l1.68,1.38,0,0,0,0,0,0h0c.51.4,1,.8,1.55,1.18A25.77,25.77,0,0,1,235.18,135Z"/><path class="cls-1" d="M272.66,123.09h0v0h0a5.79,5.79,0,0,1-2.47,2.12h-.08a6.3,6.3,0,0,1-1.84.47,62.27,62.27,0,0,0,9.44,1.6l.24-.45h0a15.2,15.2,0,0,0,1.26-3.72,60.71,60.71,0,0,1-6.13-.76A6,6,0,0,1,272.66,123.09Z"/><path class="cls-1" d="M234.77,125.5c6,0,10.89,1.76,16.45,3.78a77.94,77.94,0,0,0,9.8,3l1,.21a26.14,26.14,0,0,0,4.78.48,14.62,14.62,0,0,0,6.08-1.18,76.34,76.34,0,0,1-20.37-6.33,40.85,40.85,0,0,0-17.37-4.08,39.66,39.66,0,0,0-20.3,5.86,37,37,0,0,0-10.16,8.66c.33.36.62.69.91,1,.42.46.81.87,1.2,1.28l.5.51.4.4a38.83,38.83,0,0,1,6-5.83C220.31,128.07,227.4,125.5,234.77,125.5Z"/><path class="cls-1" d="M212,120.64a2,2,0,0,0-1.7-1,2.78,2.78,0,0,0-1.59.59c-2.29,1.64-4.5,3.38-6.75,5.08a51.88,51.88,0,0,0-10.55,14.58,52.94,52.94,0,0,0-2.86,7.49c.51-.7,1.06-1.38,1.63-2h0l0,0h0l0,0h0l0,0v0h0l0,0h0l0,0h0a88.56,88.56,0,0,1,6.65-6.63,49.18,49.18,0,0,1,4.93-6.8,43.13,43.13,0,0,1,9-7.9C212.34,122.89,212.71,121.72,212,120.64Z"/><path class="cls-1" d="M276.73,113.06a2.16,2.16,0,0,0-2.15,1.34v.14c0,.44,0,.88-.05,1.32a2.19,2.19,0,0,0,2.23,1.45l2.88.1a1,1,0,0,1,0-.17c0-.31,0-.62,0-.94h0v0h0v0h0v0c-.05-.73-.1-1.45-.14-2.17h0c0-.24,0-.48-.05-.72q-1.14-.08-2.28-.21Z"/><path class="cls-1" d="M235.26,112.08a46.8,46.8,0,0,0-15.51,2.64,2.1,2.1,0,0,0-1.09,3.48,1.94,1.94,0,0,0,1.51.68,4.12,4.12,0,0,0,1.25-.24,44.48,44.48,0,0,1,13.94-2.3,44,44,0,0,1,16.41,3.26,27.76,27.76,0,0,1-3.1-2.47l0,0c-1.46-1.34-2.89-2.73-4.28-4.14a47.24,47.24,0,0,0-8.92-.87Z"/><path class="cls-1" d="M205.37,115.47A52.35,52.35,0,0,1,234,106.78c1.58,0,3.18.07,4.79.21-.89-1-1.77-2-2.63-3.06l0,0v0L235,102.56h-.51A58.55,58.55,0,0,0,194.85,118c-2,2.27-4.07,4.44-5.92,6.81a56.36,56.36,0,0,0-12.15,36.6,57,57,0,0,0,2.29,15.13,30.65,30.65,0,0,0,3.28-4.24A53.31,53.31,0,0,1,205.37,115.47Z"/><path class="cls-1" d="M264.1,94v0c0,.19,0,.38,0,.56,5.3,2.35,9.08,6,10.56,11.89a2.06,2.06,0,0,0,2,1.55c.57.06,2.41.64,2.31-.43A17.89,17.89,0,0,0,274.64,97a21.07,21.07,0,0,0-7.24-5.56c-1-.47-2-.91-3-1.34A13.48,13.48,0,0,0,264.1,94Z"/><path class="cls-1" d="M172.63,115.64a2.13,2.13,0,0,0,1.56,3.52,2.58,2.58,0,0,0,2-1.24A66.87,66.87,0,0,1,195,100.09,76.42,76.42,0,0,1,223.84,89l-.33-.32h0l0,0Q221.75,87,220,85.45c-13.88,2.62-26.39,9-37.56,19.06A73.72,73.72,0,0,0,172.63,115.64Z"/><path class="cls-1" d="M146.58,138.36c.18-.51.3-1,.44-1.56A90.14,90.14,0,0,1,171.6,95.07a85.48,85.48,0,0,1,11.86-9.61c1.47-1,1.83-2.18,1.06-3.3a2,2,0,0,0-1.62-.94,2.84,2.84,0,0,0-1.7.67c-7.41,5.55-14.38,11.32-20.26,18.51a93.39,93.39,0,0,0-16.61,30.49c-.68,2.09-1.26,4.21-1.8,6.34a2,2,0,0,0,1.49,2.51,2.08,2.08,0,0,0,.6.09h.14l.16,0,.53-.14.05,0A2.17,2.17,0,0,0,146.58,138.36Z"/><path class="cls-1" d="M22.81,25.46c.42.21.86.36,1.29.53A93.75,93.75,0,0,1,53.61,44.34c3.53,3.27,6.79,6.84,10.07,10.36s8.7,5,13,3c7.33-3.29,9.41-12.11,4.07-18.12C77,35.36,72.89,31.34,68.85,27.32c-1.77-1.76-3.78-3.3-5.72-4.88a2,2,0,0,0-3,.27,2.14,2.14,0,0,0,.33,3c.25.24.52.45.79.67A125.47,125.47,0,0,1,77.43,42.22c3.55,4.12,2.12,10-2.84,11.72A6.78,6.78,0,0,1,68.21,53a20,20,0,0,1-2.59-2.62A103,103,0,0,0,30.53,24.09c-2-.91-4.05-1.73-6.1-2.53a2.11,2.11,0,1,0-1.62,3.9Z"/><path class="cls-1" d="M91,87.2a42.76,42.76,0,0,1-11.47,3.55c-1.58.26-2.39,1.18-2.2,2.43s1.2,2.1,2.82,1.76c2.75-.57,5.48-1.26,8.22-1.9A51.94,51.94,0,0,0,103.94,84c11.09-9.57,16.48-21.82,16.8-36.35a64.19,64.19,0,0,0-.67-8.51A2,2,0,0,0,117.9,37c-1.43,0-2.25,1.1-2,2.74a44.66,44.66,0,0,1-.6,17.69C112,71.24,103.79,81.12,91,87.2Z"/><polygon class="cls-1" points="125.18 55.3 125.18 55.3 125.18 55.3 125.18 55.3"/><path class="cls-1" d="M101.33,92.66a52.44,52.44,0,0,1-20.69,7.88,59.52,59.52,0,0,1-8.91.69c-13.18,0-25-4.73-35.49-13.89-.41-.35-.8-.72-1.19-1.1a42,42,0,0,0-.53,5.28,58.48,58.48,0,0,0,56.77,11c2.73-1.26,5.52-2.4,8.17-3.82a56.37,56.37,0,0,0,26-28.52c.72-1.7,1.34-3.4,1.89-5.11a51.9,51.9,0,0,0,2.85-16.27,64.21,64.21,0,0,0-.67-8.52,2,2,0,0,0-2.16-2.09c-1.43,0-2.26,1.09-2,2.73a44.87,44.87,0,0,1,0,14.58c-.17,1-.37,2.08-.62,3.11s-.5,1.92-.78,2.86A53.6,53.6,0,0,1,101.33,92.66Z"/><polygon class="cls-1" points="133.51 59.46 133.51 59.46 133.51 59.46 133.51 59.46"/><path class="cls-1" d="M45.69,109.35A69.22,69.22,0,0,0,70,114.68c1,0,1.93.07,2.88.07A65.66,65.66,0,0,0,101,108.32a66.4,66.4,0,0,0,17.2-11.79,64.76,64.76,0,0,0,9.2-10.77l.27-.4a58.53,58.53,0,0,0,4.55-7.73,22,22,0,0,0,1.93-4.35c.55-1.36,1-2.73,1.49-4.1a52.14,52.14,0,0,0,2.86-16.27,64.19,64.19,0,0,0-.67-8.51c-.17-1.47-1-2.12-2.17-2.1-1.43,0-2.26,1.09-2,2.74a45.37,45.37,0,0,1,0,14.57c-.18,1-.37,2.08-.63,3.12s-.5,1.92-.78,2.85c-.33,1.24-.71,2.46-1.13,3.67-.65,1.73-1.37,3.44-2.19,5.14a74.75,74.75,0,0,1-5.12,9c-9.49,14.19-23.15,23.17-40.95,26.11-.57.1-1.13.17-1.69.25a71.72,71.72,0,0,1-10,.74A59.54,59.54,0,0,1,52,107.35c-6.4-2.17-11.56-5.76-17.24-9.21.27,2,.56,4,1,5.9a63.63,63.63,0,0,0,9.54,5.14"/><path class="cls-1" d="M147.58,106.22a2,2,0,0,0-.33-2.89,2.06,2.06,0,0,0-1.49-.49,2.25,2.25,0,0,0-1.42.71c-.37.39-.69.83-1,1.25A90.25,90.25,0,0,1,103.91,133,86.39,86.39,0,0,1,93.64,136c-1.48.34-3,.65-4.47.91-1.74.31-2.56,1.26-2.31,2.59s1.29,2,2.93,1.6c4.77-1.1,9.52-2.27,13.74-3.28,4.47-2,8.47-3.5,12.29-5.43a93.41,93.41,0,0,0,27.55-21.12C144.84,109.66,146.23,108,147.58,106.22Z"/><path class="cls-1" d="M49.48,66.62c9,9.73,19.89,12.46,32.66,9,1.55-.74,3.2-1.47,4.81-2.3a2.13,2.13,0,0,0,1.16-3.06c-.64-1.15-1.8-1.39-3.19-.65a25.67,25.67,0,0,1-16.56,2.93c-6.8-1.08-12.12-4.58-16.61-9.72-2.8-3.21-6-6.08-9.06-9.08a2,2,0,0,0-2.55-.34,1.85,1.85,0,0,0-1,2.15,4.2,4.2,0,0,0,1.1,1.68C43.31,60.37,46.49,63.4,49.48,66.62Z"/><path class="cls-1" d="M148,100.86a2.07,2.07,0,0,0,3.75-.06c2.28-3.66,4.61-7.3,6.64-11.1a62.79,62.79,0,0,0,5.77-16,3.16,3.16,0,0,0-.39-2.33,2.57,2.57,0,0,0-2-.65c-1,.08-1.38,1-1.66,1.85-1.08,3.46-2,7-3.32,10.35A64.34,64.34,0,0,1,148.43,98C147.71,99,147.32,100,148,100.86Z"/><path class="cls-1" d="M102.21,147c4.07-1.44,8.16-2.83,12.12-4.53a62.65,62.65,0,0,0,14.46-8.87,3.17,3.17,0,0,0,1.15-2.06,2.6,2.6,0,0,0-1.19-1.78c-.81-.55-1.67-.11-2.45.42-3,2-5.94,4.17-9,6a63.82,63.82,0,0,1-15.87,6.61c-1.17.32-2.09.83-2.14,1.91A2.07,2.07,0,0,0,102.21,147Z"/><path class="cls-1" d="M133.56,136.24c-.81-.55-1.68-.11-2.46.42-3,2-5.94,4.17-9,6a64,64,0,0,1-15.87,6.61c-1.17.32-2.08.83-2.13,1.91a2.06,2.06,0,0,0,3,2.28c4.07-1.43,8.16-2.82,12.12-4.52a63,63,0,0,0,14.46-8.87,3.13,3.13,0,0,0,1.15-2.07A2.62,2.62,0,0,0,133.56,136.24Z"/><path class="cls-1" d="M126,150.49a52.41,52.41,0,0,1-13.15,5.31c-1,.25-1.73.67-1.77,1.55a1.74,1.74,0,0,0,2.49,1.9c3.37-1.15,6.77-2.26,10.05-3.63a51.17,51.17,0,0,0,12-7.17,2.57,2.57,0,0,0,.94-1.68,2.19,2.19,0,0,0-1-1.47c-.68-.45-1.39-.1-2,.33C131,147.27,128.58,149,126,150.49Z"/><path class="cls-1" d="M137.62,152.78c-.55-.37-1.13-.08-1.66.28-2,1.38-4,2.83-6.12,4.08a43.4,43.4,0,0,1-10.73,4.49c-.79.22-1.41.56-1.44,1.29a1.39,1.39,0,0,0,2,1.55c2.75-1,5.52-1.92,8.19-3.07a42.77,42.77,0,0,0,9.78-6,2.16,2.16,0,0,0,.78-1.4A1.74,1.74,0,0,0,137.62,152.78Z"/><path class="cls-1" d="M167.7,121.78c-1,2.37-2,4.75-3,7.15a2.12,2.12,0,1,0,3.95,1.5c1.14-2.68,2.66-5.23,3.2-8.13a1,1,0,0,0,0-.38c-.16-.59-1.34-1.25-1.85-1.4A1.9,1.9,0,0,0,167.7,121.78Z"/><path class="cls-1" d="M163.21,113.31a83.3,83.3,0,0,0-7.09,11.91c-1.89,4.13-3.34,8.52-4.92,12.77-.59,1.58-.08,2.69,1.21,3.11s2.33-.27,2.86-1.95a85.17,85.17,0,0,1,5.85-14.1,90.2,90.2,0,0,1,33-35.42c.46-.28.94-.54,1.37-.86a2.06,2.06,0,0,0,.6-2.85,2,2,0,0,0-2.83-.71c-1.89,1.12-3.76,2.28-5.57,3.52A93.47,93.47,0,0,0,163.21,113.31Z"/><path class="cls-1" d="M105.7,54.62c-3.19,13.74-11.87,22.83-25.52,26.29a38,38,0,0,1-9.44,1.23c-9.6,0-18.15-4-25.21-11.87-.79-.88-1.58-1.73-2.38-2.57-.22.39-.44.78-.68,1.18h0c-.33.56-.66,1.12-1,1.67-.19.32-.38.63-.58.94l.69.79c8.1,9.29,18.1,14,29.83,14A48.57,48.57,0,0,0,76.71,86,36.2,36.2,0,0,0,99.47,74.63c11.12-11.78,14.1-25.48,8.83-40.87-.17-.49-.31-1-.44-1.47a19.29,19.29,0,0,1-.5-5.57c0-.27.53-5,.82-4.91l-2.51-1.12-1.33-.59-.09,0a15.2,15.2,0,0,0-.49,1.82c-.14.67-.31,1.34-.51,2.17-1.06-1.32-2-2.5-2.94-3.66a3,3,0,0,1-.92-2.49l-2.8-1.24-1.12-.5c-.89,2.66-.19,4.83,2.1,7.61C105,32.8,108.38,43.06,105.7,54.62Z"/><path class="cls-1" d="M137.05,79.31l-.07.08c-.13.18-.25.37-.37.57-1.33,2.26-2.61,4.56-4,6.8a80.15,80.15,0,0,1-26.29,24.46,66.16,66.16,0,0,1-22.45,7.59,86.42,86.42,0,0,1-11.95.86,70.78,70.78,0,0,1-23.76-4c.56,1.64,1.08,3.27,1.62,4.9A74.15,74.15,0,0,0,72.06,124a76.52,76.52,0,0,0,11.25-.86,85.58,85.58,0,0,0,13.88-3.29,75.76,75.76,0,0,0,11.35-5c.7-.38,1.4-.78,2.09-1.19a2.69,2.69,0,0,0,.55-.43c-.47.3-.94.61-1.42.9.48-.29.95-.6,1.42-.9a90.8,90.8,0,0,0,19.89-17,60.37,60.37,0,0,0,7.63-11.07c.46-.77.92-1.54,1.36-2.33a88.56,88.56,0,0,0,4.56-9.42c.4-.95.77-1.91,1.13-2.88.11-.4.21-.8.32-1.21a40.49,40.49,0,0,0,1.23-5.2,1.82,1.82,0,0,0,0-.77c-.2-.6-1.46-1.1-2-1.19a1.68,1.68,0,0,0-.86.06,2.13,2.13,0,0,0-1.12,1.09,7,7,0,0,0-.46,1.52,48.67,48.67,0,0,1-3.25,9.55c-.75,1.65-1.55,3.24-2.38,4.81Z"/><path class="cls-1" d="M101.7,127.78a81.78,81.78,0,0,0,16-7.54,84.44,84.44,0,0,0,30.3-31.34,88.56,88.56,0,0,0,4.56-9.42c.39-1,.77-1.91,1.13-2.88.11-.4.21-.8.32-1.21a40.1,40.1,0,0,0,1.23-5.2,1.82,1.82,0,0,0,0-.77c-.2-.6-1.46-1.1-2-1.19a1.68,1.68,0,0,0-.86.06,2.13,2.13,0,0,0-1.12,1.09,7,7,0,0,0-.46,1.52,48.67,48.67,0,0,1-3.25,9.55A82.61,82.61,0,0,1,136.1,98.91a80.86,80.86,0,0,1-21.79,18.42,86.19,86.19,0,0,1-32.46,11.11,78.09,78.09,0,0,1-16.53.33,113.88,113.88,0,0,1-11.89-1.47c-.75-.15-1.45-.31-2.08-.49-1.71-.47-3-1-3.18-1.72.56,1.64,1.08,3.28,1.62,4.91,2.16.67,4.37,1.22,6.55,1.8.71.2,1.42.39,2.13.55a63.09,63.09,0,0,0,13.59,1.08,74.86,74.86,0,0,0,10.42-.75c2.13-.29,4.27-.68,6.4-1.14,2.81-.61,5.6-1.37,8.31-2.25"/><path class="cls-1" d="M176.13,136.13c3-7.69,8.43-14.32,14.3-20a67.26,67.26,0,0,1,9.86-7.89A63.86,63.86,0,0,1,226.48,98q2.55-.37,5.1-.51l-1.06-1.39c-.64-.85-1.29-1.68-2-2.48A71.37,71.37,0,0,0,210,98.23a64.19,64.19,0,0,0-20,12.52,70.6,70.6,0,0,0-5.71,5.88A67.84,67.84,0,0,0,172.84,134c-.05.13-.12.25-.17.38a65.28,65.28,0,0,0-4.4,15.75,69.77,69.77,0,0,0,.27,21.92,67.57,67.57,0,0,0,2.93,11,31.83,31.83,0,0,0,3-2.11l0,0h0l0,0,0,0,.46-.37a58,58,0,0,1-2.51-10.24,60.34,60.34,0,0,1-.66-11.24A69.33,69.33,0,0,1,176.13,136.13Z"/><path class="cls-1" d="M51.79,91.45l.35.14a46.91,46.91,0,0,0,15,3.81h.25a2.08,2.08,0,0,0,2.16-2.76,2,2,0,0,0-.25-.5,2.59,2.59,0,0,0-2.1-1,44.35,44.35,0,0,1-14-3.72C45.44,83.87,40.34,77.73,34.31,72Q32.69,70.29,31,68.72c-1.34-1.22-2.71-2.37-4.13-3.45L25,66.54l-.84.57-1.05.71c.49.35,1,.71,1.46,1.08,4.63,3.54,8.64,8,12.77,12.24A47.09,47.09,0,0,0,51.79,91.45Z"/><path class="cls-1" d="M165.87,182.66a53.11,53.11,0,0,0-1.44-5.75,45.06,45.06,0,0,1-1.12-4.55c-.13-.79-.21-1.59-.27-2.39a13.23,13.23,0,0,1-2,1.31l-.07,0h0l-.05,0h0l0,0h0l0,0,0,0c-.32.16-.66.3-1,.46l1.85,9.91c.14.67.27,1.34.44,2,.08.31.26,1.47.61,1.59a.47.47,0,0,0,.17,0h2.34c.17,0,.76.06.87-.11a.42.42,0,0,0,0-.25A14.59,14.59,0,0,0,165.87,182.66Z"/><path class="cls-1" d="M72.49,44.19A119.8,119.8,0,0,0,47,21.58a93.71,93.71,0,0,0-9.57-5.76A73,73,0,0,0,26.9,11.9a2.48,2.48,0,0,0-.64-.12A2.11,2.11,0,0,0,24,13.31a2.19,2.19,0,0,0,1.61,2.77c2.38.83,4.9,1.59,7.28,2.55A54.33,54.33,0,0,1,39.37,22a106.73,106.73,0,0,1,12.38,8.33,108.18,108.18,0,0,1,9.13,8c2.85,2.77,5.5,5.76,8.21,8.67a2.65,2.65,0,0,0,2,1,2.44,2.44,0,0,0,.64-.08A2.23,2.23,0,0,0,72.49,44.19Z"/><path class="cls-1" d="M33.66,81.24H33.5c-2.66.14-5.33.3-8,.52a2.18,2.18,0,1,0,.22,4.36h.21c2.54-.15,5.09-.3,7.63-.49a12.42,12.42,0,0,0,1.79-.41,7.54,7.54,0,0,0,.38-2.39,2,2,0,0,0-2.08-1.59"/><path class="cls-1" d="M31.64,73.9A2.87,2.87,0,0,0,31,74l-3.44.82c-1.45.35-2.89.72-4.33,1.1a2.16,2.16,0,0,0-1.67,2.74,2.07,2.07,0,0,0,2.1,1.56,3.33,3.33,0,0,0,.75-.09l3.28-.79,1.09-.27,3.06-.76a4.93,4.93,0,0,0,.83-.33l.86-.4a7.51,7.51,0,0,0-.05-2.42,1.86,1.86,0,0,0-1.84-1.24"/><path class="cls-1" d="M2.22,53.77c-1.4,0-2,1.56-2.2,2.73a.85.85,0,0,0,0,.42.91.91,0,0,0,.52.42c3,1.36,6.18,2,9.25,3.2A58.93,58.93,0,0,1,17.34,64l1.28.73a2.89,2.89,0,0,0,1.46.42,2.06,2.06,0,0,0,1.83-1.08l0,0a2.14,2.14,0,0,0,.24-1.54,2.48,2.48,0,0,0-1.45-1.61C17.24,59.2,13.78,57.49,10.21,56A65.68,65.68,0,0,0,3,53.89a2.64,2.64,0,0,0-.78-.12"/><path class="cls-1" d="M46.12,10.17c-1.37-.74-2.78-1.4-4.18-2.08a2.6,2.6,0,0,0-1-.26,2.09,2.09,0,0,0-2.07,1.25,2.11,2.11,0,0,0,.8,2.72c.09,0,2.61,1.26,5.51,2.82L49,16.77A22.21,22.21,0,0,1,53.62,20c.23.15.46.31.7.45a2.58,2.58,0,0,0,1.32.4,2.09,2.09,0,0,0,1.74-1,2.19,2.19,0,0,0-.6-3.06c-.18-.14-.39-.27-.58-.41-1.12-.76-2.24-1.5-3.38-2.23"/><path class="cls-1" d="M85.77.09A2,2,0,0,0,85.19,0a2.06,2.06,0,0,0-1.84,1.37c-1,2.34-2.06,4.69-3,7.06-1.84,3.68-3.3,7.54-5,11.41-.14-.11-.36-.27-.57-.45-2-1.79-4.12-3.53-6.26-5.2-1.06-.83-2.14-1.64-3.23-2.44S63.08,10.08,62,9.29a27,27,0,0,0-3.76-2.08c-1.33-.65-2.67-1.3-4-1.92A2.48,2.48,0,0,0,53.09,5a2.11,2.11,0,0,0-2,1.28,2.19,2.19,0,0,0,1.25,3l4.54,2.24a31.48,31.48,0,0,1,3.77,2.31L62,14.89l.06.06a2.51,2.51,0,0,0,.39.32L74.78,25.32a3.12,3.12,0,0,0,2,1c1,0,1.73-.74,2.16-2.17.32-1.07.6-2.15,1-3.21a78.87,78.87,0,0,1,4.32-10.5.93.93,0,0,1,0-.1l0,0,.48-1.12c.4-.91.79-1.83,1.19-2.74S86.7,4.79,87,4a12.45,12.45,0,0,0,.46-1.34c.14-.51.4-1-.06-1.42A4.52,4.52,0,0,0,85.77.09ZM62.53,11.28a2.56,2.56,0,0,1-.11.24,2.65,2.65,0,0,1-.31.46l-.18.21h0l.18-.21a2.65,2.65,0,0,0,.31-.46,2.56,2.56,0,0,0,.11-.24,1.42,1.42,0,0,0,0-.22A1.42,1.42,0,0,1,62.53,11.28Zm20.84.21h0Zm-2,.22A2.08,2.08,0,0,1,80,10.13a2.08,2.08,0,0,0,1.34,1.58,2.26,2.26,0,0,0,.83.16,1.55,1.55,0,0,0,.31,0,1.55,1.55,0,0,1-.31,0A2.26,2.26,0,0,1,81.38,11.71Zm1.72-.06-.06,0Zm-.28.12-.14,0Z"/><path class="cls-1" d="M97.91,31.75a88,88,0,0,0-6.74-8.64,7.87,7.87,0,0,1-1.87-4.58c-.14-2.77,1.23-5,2.32-7.44.06-.14.12-.27.17-.41a6.47,6.47,0,0,0,.43-2.82c0-.69-.89-1.23-1.51-1.42a2,2,0,0,0-.58-.09,2.07,2.07,0,0,0-1.84,1.37c-.06.13-.11.26-.17.38-1.17,2.54-2.59,5-3.15,7.81a11.08,11.08,0,0,0,1.62,8.19,74.56,74.56,0,0,0,5.18,6.39,26.5,26.5,0,0,1,.14,33.45,2.21,2.21,0,0,0,.14,3.29,2.08,2.08,0,0,0,1.31.48,2.62,2.62,0,0,0,2-1C103.31,57.19,104.52,42.33,97.91,31.75ZM87.47,18.19a2.07,2.07,0,0,0,1.3-.79A2.07,2.07,0,0,1,87.47,18.19Z"/></svg>