<svg id="Layer_1" data-name="Layer 1" xmlns="http://www.w3.org/2000/svg" viewBox="0 0 570.24 202.06"><defs><style>.cls-1,.cls-2{fill:#fff;}.cls-1{stroke:#fff;stroke-miterlimit:10;}</style></defs><title>6_white</title><path class="cls-1" d="M31.77,145.72h5.38V180.5c0,13.87-7.92,21.06-18.32,21.06S.5,194.59.5,180.35V145.72H5.88v34.93c0,11,5.82,15.94,13,15.94,6.18,0,12.94-3.93,12.94-15.87Z"/><path class="cls-1" d="M85.44,200.6,67.18,175.75h5.24c9.53,0,15.2-5,15.2-12.46,0-5.19-3.13-12.61-15.49-12.61H61.88V200.6H56.49V145.72H72.71c14,0,20.29,8.45,20.29,17.72,0,8.9-6.54,15.94-16,16.69L92.2,200.6Z"/><path class="cls-1" d="M128,180.35v-5h36.51a28.43,28.43,0,0,1-28.44,26.18c-14.76,0-28.87-12-28.87-28.4A28.66,28.66,0,0,1,136,144.75c12.07,0,22.32,7.86,25.45,15.58h-6.25c-3.71-6.46-11.42-10.61-19.13-10.61a23.44,23.44,0,1,0,.22,46.87c9.74,0,19.27-6.75,21.74-16.24Z"/><path class="cls-1" d="M181.5,200.6V145.72H211v5H186.88v19.73h23.27v5H186.88v20.25H211v5Z"/><path class="cls-1" d="M243.19,200.58,243,145.7l5.38,0,.2,54.88Z"/><path class="cls-1" d="M320.21,200.29,320,151.42h-.15l-20,48.94-4.59,0-20.17-48.8H275l.18,48.88-5.38,0-.2-54.88,8.29,0,19.73,46.64,19.47-46.79,8.29,0,.2,54.88Z"/><path class="cls-1" d="M346.74,200.19l-.19-54.88,16.29-.06c14.83-.06,19.3,8.9,19.33,16.47,0,7.34-4.6,16.25-19.29,16.31l-10.83,0,.08,22.1ZM364,173.06c7.49,0,12.78-4.65,12.76-11.47,0-5.49-3.46-11.41-14-11.37l-10.83,0L352,173.1Z"/><path class="cls-1" d="M428.56,199.88l-18.35-24.77,5.24,0c9.52,0,15.18-5,15.15-12.52,0-5.19-3.17-12.59-15.53-12.55l-10.26,0L405,200l-5.38,0-.2-54.88,16.22-.06c14-.05,20.32,8.38,20.35,17.65,0,8.9-6.48,16-15.93,16.75l15.27,20.41Z"/><path class="cls-1" d="M454.37,199.79l-.2-54.88,5.38,0,.2,54.88Z"/><path class="cls-1" d="M518.36,199.55l-32.1-48.16h-.14l.17,48.28-5.38,0-.2-54.88,7.27,0,30.2,45.43h.15l-.17-45.53,5.39,0,.19,54.88Z"/><path class="cls-1" d="M552.25,199.42l-.18-49.91-12.37.05v-5l30-.11,0,5-12.29,0,.18,49.91Z"/><path class="cls-2" d="M232,74.16h0c.77.34,1.55.65,2.32.94V72.3a41.23,41.23,0,0,1-4.51-2.14,23.41,23.41,0,0,0,2.17,4Z"/><path class="cls-2" d="M229.14,42.6c.15-.33.3-.67.44-1s.43-1,.65-1.42l.06-.13A48.3,48.3,0,0,0,216.8,31a50,50,0,0,0-4.86-1.84h0l-.41.27h0c-.4.28-.8.55-1.19.84h0l0,0h0l0,0h-.11a3,3,0,0,0-.34.37h0q-.13.19-.27.42A46.89,46.89,0,0,1,215,33.12,45.24,45.24,0,0,1,229.14,42.6Z"/><path class="cls-2" d="M223.15,30.36a1.22,1.22,0,0,0,1.08-.65c.41-.74.09-1.52-.83-2a55.79,55.79,0,0,0-6.8-3.15A6.65,6.65,0,0,1,215,26.81a51.63,51.63,0,0,1,7.11,3.24A2.12,2.12,0,0,0,223.15,30.36Z"/><path class="cls-2" d="M217,21.16s0,.09,0,.13a56.19,56.19,0,0,1,15.8,8.88,74.32,74.32,0,0,1,8.64,8.47,12.56,12.56,0,0,0,9.44,4.15,14.29,14.29,0,0,0,4.87-.87c1-.56,2-1.05,2.89-1.69a12.9,12.9,0,0,0,4.05-16.09,24.75,24.75,0,0,0-4.46-5.82,1.76,1.76,0,0,0-1.25-.67,1.23,1.23,0,0,0-.85.35c-.61.54-.55,1.34.12,2.12,1.06,1.23,2.2,2.42,3.14,3.74a10.22,10.22,0,0,1-.14,12.07,10.6,10.6,0,0,1-8.42,4.15,10.07,10.07,0,0,1-7.7-3.55,65.79,65.79,0,0,0-8.65-8.45A58.42,58.42,0,0,0,219,19.15l-.09.08h-.05c-.66.55-1.86,1.24-1.85,1.73v0A.59.59,0,0,0,217,21.16Z"/><path class="cls-2" d="M250.43,6.33c.51,0,.93-.33,1.26-1s.55-1.14.84-1.7l.3-.56h-.23q-.57,0-1.14,0a29.43,29.43,0,0,0-5.55.56l3.42,2.34A2.06,2.06,0,0,0,250.43,6.33Z"/><path class="cls-2" d="M236.88,91.23c-.76-.34-1.52-.66-2.29-1h0l-.14.23c-.2.3-.4.6-.59.9l-.75,1.17c1.17.45,2.33,1,3.49,1.49a49.6,49.6,0,0,1,11.05,7.06l.16-.1.93-.61,0,0h0l1.21-.78c-1.11-1-2.26-1.87-3.46-2.74A51.7,51.7,0,0,0,236.88,91.23Z"/><path class="cls-2" d="M235.18,96.89a1.93,1.93,0,0,0-.74-.17,1.22,1.22,0,0,0-1.1.66c-.42.78-.1,1.56.85,2a44.71,44.71,0,0,1,8.39,5.12l1.24-.84,1.05-.7c-.54-.44-1.09-.88-1.65-1.31A46.86,46.86,0,0,0,235.18,96.89Z"/><path class="cls-2" d="M239.32,105.72a1.86,1.86,0,0,1,.56.51,1.2,1.2,0,0,1,.08,1.28,1.39,1.39,0,0,1-2.13.44,49.41,49.41,0,0,0-4.47-2.28q-1.19-.53-2.4-1a7.87,7.87,0,0,1-2.12-.76c-.36-.31-.32-2.58.24-2.72s1.65.46,2.18.67c.76.31,1.51.66,2.28,1A44.46,44.46,0,0,1,239.32,105.72Z"/><path class="cls-2" d="M243.27,87.87a61.27,61.27,0,0,0-5.67-2.72c-.12.33-.26.65-.41,1h0v0h0v0h0v0h0a13.25,13.25,0,0,1-.77,1.35,57.58,57.58,0,0,1,11.44,6.31,52.24,52.24,0,0,1,4.82,3.83q.24-.24.45-.48h0l0-.06h.06a5.89,5.89,0,0,0,.88-1.49l-3.62-3.25C247.87,90.69,245.63,89.16,243.27,87.87Z"/><path class="cls-2" d="M215.91,110.35l-.11.05h0a5,5,0,0,0-2.62,2.63c.52,0,1-.05,1.54-.05h0a27.45,27.45,0,0,1,13.45,3.66l.52-.16h0a10.94,10.94,0,0,0,1.55-.63h0c.33-.17.65-.36,1-.56a31.54,31.54,0,0,0-8.86-3.92A32.24,32.24,0,0,0,215.91,110.35Z"/><path class="cls-2" d="M224.45,105.32c-.33.38-.68.76-1,1.11h0c-.38.36-.77.71-1.18,1a33.28,33.28,0,0,1,11.7,5.16,11.35,11.35,0,0,0,.84-1.37h0l0,0h0c.15-.29.3-.6.44-.92-1.27-.77-2.53-1.56-3.85-2.24A37.77,37.77,0,0,0,224.45,105.32Z"/><path class="cls-2" d="M214.21,116.29c-.64,0-1.28,0-1.9.07,0,.2-.05.41-.07.62h.06c1.25,0,2.42,0,3.56,0,.69,0,1.36,0,2,0l2.45.14h0l1,0a25.36,25.36,0,0,0-2.51-.53A31.78,31.78,0,0,0,214.21,116.29Z"/><path class="cls-2" d="M290.11,108.57a1.18,1.18,0,0,0-.63-.19,1.67,1.67,0,0,0-1.28.8,36.5,36.5,0,0,1-3,3.75A24.89,24.89,0,0,0,282,117h3.3a27.08,27.08,0,0,1,2-2.35,38,38,0,0,0,3.25-4.1A1.3,1.3,0,0,0,290.11,108.57Z"/><path class="cls-2" d="M284.66,106.55a1.36,1.36,0,0,0-.78-.27,1.59,1.59,0,0,0-1.23.73,14,14,0,0,1-1.38,1.6,28.66,28.66,0,0,0-6,8.4h3c.18-.34.37-.68.56-1a29.26,29.26,0,0,1,3.06-4.07c1-1.17,2.05-2.22,3-3.39A1.3,1.3,0,0,0,284.66,106.55Z"/><path class="cls-2" d="M276.44,109.12l-.86.07h0a6.7,6.7,0,0,0-.9.11h0l-.59.14H274a8.61,8.61,0,0,0-1.33.46h0l-.09,0a34.06,34.06,0,0,0-3.15,5.89c0,.36,0,.73,0,1.13h2.45c0-.09.07-.17.11-.25a32.61,32.61,0,0,1,4.48-7.64Z"/><path class="cls-2" d="M300.62,114.9a1.34,1.34,0,0,0-.67-.19,1.53,1.53,0,0,0-1.28.87c-.29.48-.59.94-.9,1.4h3.17l0,0C301.45,116.07,301.32,115.29,300.62,114.9Z"/><path class="cls-2" d="M360.76,115.1a15.81,15.81,0,0,0-.14,1.89h7.12c-2.35-.54-4.68-1.17-7-1.91Z"/><path class="cls-2" d="M371.11,111.74l-.23,0a1.3,1.3,0,0,0-1.34,1.09,1.34,1.34,0,0,0,1.09,1.56,3.25,3.25,0,0,0,.43.08c2,.38,4.07.67,6.11.88l.18-.5.78-2.11q-2.69-.25-5.36-.7C372.21,111.93,371.67,111.8,371.11,111.74Z"/><path class="cls-2" d="M367.47,112.34a1.33,1.33,0,0,0-1-1.64l-.63-.19c-1.15-.31-3.45.42-3.91,1.63a16.38,16.38,0,0,0,3.84,1.13,2,2,0,0,0,.41,0A1.25,1.25,0,0,0,367.47,112.34Z"/><path class="cls-2" d="M302.44,109.56h0a11.39,11.39,0,0,0-1.95.67,52.89,52.89,0,0,0,1.63,6.74h2.8a50.36,50.36,0,0,1-1.85-7.57Z"/><polygon class="cls-2" points="303.06 109.41 303.06 109.41 303.06 109.41 303.06 109.41"/><path class="cls-2" d="M368.6,106.15q-.15.57-.27,1.14a.88.88,0,0,0,0,.36.63.63,0,0,0,.38.45,7.87,7.87,0,0,0,2.05.42c.95.17,1.91.25,2.86.41q2.76.45,5.5.68c.1-.4.19-.8.25-1.21v-.07c0-.18.05-.36.07-.54v-.07c0-.26.05-.51.07-.77a40.39,40.39,0,0,1-4.76-.63c-1.74-.3-3.45-.71-5.17-1.13a.9.9,0,0,0-.46,0c-.26.09-.37.38-.44.64A3.38,3.38,0,0,0,368.6,106.15Z"/><path class="cls-2" d="M379.2,101.92v-.13h0v0c0-.24-.06-.47-.1-.7A57.87,57.87,0,0,1,365.7,98.2c-2.88-1-5.67-2.2-8.46-3.39a7.86,7.86,0,0,0-3.1-.64c-1.52,0-3.68.49-4.65,1.76-.1.44,6.88,1.35,7.09,1.38,2.25.38,4.42.44,6.67,1h.19a6.66,6.66,0,0,1,4.39,3.32,63.56,63.56,0,0,0,11.58,2.06Q379.32,102.84,379.2,101.92Z"/><path class="cls-2" d="M358.57,92a65.46,65.46,0,0,0,11.34,4.21,57.36,57.36,0,0,0,8.67,1.6c-.13-.91-.24-1.83-.32-2.74a57.18,57.18,0,0,1-7.67-1.45,76.41,76.41,0,0,1-11.33-4.23,12.53,12.53,0,0,0-5.1-1.09,13.46,13.46,0,0,0-9.31,3.89c-.3.41-.61.81-.92,1.22.78.46,1.57.9,2.38,1.29a10.46,10.46,0,0,1,7.88-3.7A10.19,10.19,0,0,1,358.57,92Z"/><path class="cls-2" d="M354.12,85.17A18.63,18.63,0,0,1,362,87.08c2.44,1.13,5,2,7.55,2.91a1.48,1.48,0,0,0,.53.11,1.27,1.27,0,0,0,1-.56,1.29,1.29,0,0,0,.27-1l-.58-.1h-.1a15.24,15.24,0,0,1-4.76-1.8h-.13a19.71,19.71,0,0,1-2.73-2l-.74-.31a20.83,20.83,0,0,0-8.31-1.84c-4.51,0-8.77,1.71-12.83,5-.67.78-1.39,1.58-2.08,2.43.35.3.7.59,1.06.87h0l0,0h0c.32.26.64.51,1,.75a16.27,16.27,0,0,1,12.88-6.4Z"/><path class="cls-2" d="M377.77,77.65h0A3.69,3.69,0,0,1,376.2,79h-.06a4.13,4.13,0,0,1-1.15.3,38.91,38.91,0,0,0,5.95,1l.15-.28h0a9.83,9.83,0,0,0,.79-2.35c-1.29-.1-2.58-.26-3.86-.48A4.45,4.45,0,0,1,377.77,77.65Z"/><path class="cls-2" d="M353.86,79.18c3.81,0,6.87,1.11,10.38,2.38a49.45,49.45,0,0,0,6.18,1.88l.66.13a16.67,16.67,0,0,0,3,.3,9.21,9.21,0,0,0,3.83-.74,48.08,48.08,0,0,1-12.85-4,25.72,25.72,0,0,0-11-2.57,25,25,0,0,0-12.8,3.69,23.64,23.64,0,0,0-6.42,5.46l.58.63.75.81.32.32c.08.08.17.16.25.25a24.64,24.64,0,0,1,3.8-3.68A21.2,21.2,0,0,1,353.86,79.18Z"/><path class="cls-2" d="M339.51,76.11a1.25,1.25,0,0,0-1.07-.66,1.75,1.75,0,0,0-1,.37c-1.44,1-2.84,2.13-4.26,3.2a32.63,32.63,0,0,0-6.65,9.21A33.36,33.36,0,0,0,324.72,93c.33-.44.67-.87,1-1.29h0l0,0h.05v0h0l0,0h0a55.2,55.2,0,0,1,4.19-4.19,31.46,31.46,0,0,1,3.11-4.29,27.15,27.15,0,0,1,5.71-5C339.71,77.53,339.94,76.79,339.51,76.11Z"/><path class="cls-2" d="M380.33,71.33a1.36,1.36,0,0,0-1.35.84v.09l0,.83a1.38,1.38,0,0,0,1.4.92l1.82.06V74c0-.19,0-.39,0-.59h0v0h0v0L382,71.93h0l0-.46c-.48,0-1-.07-1.44-.13Z"/><path class="cls-2" d="M354.17,70.71a29.59,29.59,0,0,0-9.78,1.66,1.33,1.33,0,0,0-.69,2.2,1.25,1.25,0,0,0,.95.43,2.56,2.56,0,0,0,.79-.15,27.28,27.28,0,0,1,19.15.6,18.82,18.82,0,0,1-2-1.55l0,0c-.92-.85-1.81-1.72-2.7-2.61a29.91,29.91,0,0,0-5.62-.55Z"/><path class="cls-2" d="M335.32,72.85a33,33,0,0,1,18.07-5.49c1,0,2,0,3,.14-.56-.64-1.12-1.28-1.66-1.93l0,0h0L354,64.7h-.32a37,37,0,0,0-25,9.76c-1.25,1.43-2.57,2.8-3.73,4.3a35.51,35.51,0,0,0-7.67,23.09,36,36,0,0,0,1.44,9.54,18.86,18.86,0,0,0,2.07-2.67A33.64,33.64,0,0,1,335.32,72.85Z"/><path class="cls-2" d="M372.36,59.29h0v0l0,.35a10.83,10.83,0,0,1,6.66,7.5,1.3,1.3,0,0,0,1.23,1c.36,0,1.52.4,1.47-.28A11.27,11.27,0,0,0,379,61.19a13.17,13.17,0,0,0-4.56-3.51c-.62-.29-1.25-.57-1.88-.84A9.24,9.24,0,0,0,372.36,59.29Z"/><path class="cls-2" d="M314.66,73a1.31,1.31,0,0,0,.14,1.89,1.34,1.34,0,0,0,.84.33,1.63,1.63,0,0,0,1.28-.79,42.15,42.15,0,0,1,11.85-11.24,48.12,48.12,0,0,1,18.2-7l-.21-.21h0c-.73-.72-1.47-1.4-2.23-2a48.34,48.34,0,0,0-23.69,12A46.19,46.19,0,0,0,314.66,73Z"/><path class="cls-2" d="M298.23,87.29c.11-.32.18-.66.27-1A56.91,56.91,0,0,1,314,60a53,53,0,0,1,7.48-6.06c.93-.63,1.15-1.38.67-2.08a1.23,1.23,0,0,0-1-.6,1.87,1.87,0,0,0-1.08.42,71.23,71.23,0,0,0-12.78,11.68A59.22,59.22,0,0,0,296.8,82.58c-.43,1.31-.79,2.65-1.13,4A1.37,1.37,0,0,0,297,88.22h.09l.1,0,.33-.09h0A1.45,1.45,0,0,0,298.23,87.29Z"/><path class="cls-2" d="M220.14,16.07c.26.12.54.22.81.32A59.16,59.16,0,0,1,239.57,28c2.23,2.06,4.28,4.32,6.36,6.54a7.28,7.28,0,0,0,8.19,1.91A7.14,7.14,0,0,0,256.69,25c-2.39-2.68-5-5.22-7.5-7.76-1.12-1.11-2.39-2.08-3.61-3.07a1.28,1.28,0,0,0-1.89.17,1.34,1.34,0,0,0,.2,1.89c.16.15.33.29.5.42a79.65,79.65,0,0,1,10.21,10,4.51,4.51,0,0,1-1.79,7.4,4.26,4.26,0,0,1-4-.58,12.18,12.18,0,0,1-1.64-1.65A64.88,64.88,0,0,0,225,15.2c-1.26-.58-2.55-1.09-3.85-1.6a1.32,1.32,0,0,0-1.76.71A1.34,1.34,0,0,0,220.14,16.07Z"/><path class="cls-2" d="M263.17,55a27.15,27.15,0,0,1-7.24,2.24c-1,.17-1.51.75-1.39,1.54a1.31,1.31,0,0,0,1.78,1.11c1.74-.36,3.46-.8,5.19-1.2A33,33,0,0,0,271.32,53c7-6,10.4-13.77,10.6-22.93a40.33,40.33,0,0,0-.42-5.37,1.29,1.29,0,0,0-1.37-1.33c-.9,0-1.42.69-1.25,1.73a28,28,0,0,1-.39,11.16A26.85,26.85,0,0,1,263.17,55Z"/><polygon class="cls-2" points="284.72 34.89 284.72 34.89 284.72 34.89 284.72 34.89"/><path class="cls-2" d="M269.68,58.46a33.35,33.35,0,0,1-13.06,5,37.49,37.49,0,0,1-5.62.44c-8.31,0-15.79-3-22.39-8.77-.26-.22-.5-.46-.75-.7a26.6,26.6,0,0,0-.33,3.34,36.87,36.87,0,0,0,35.81,6.91c1.72-.8,3.49-1.52,5.16-2.41a35.63,35.63,0,0,0,16.38-18c.45-1.07.84-2.14,1.18-3.22a32.69,32.69,0,0,0,1.81-10.27,39,39,0,0,0-.43-5.37,1.28,1.28,0,0,0-1.36-1.32c-.9,0-1.43.69-1.26,1.73a28.06,28.06,0,0,1,0,9.19c-.11.66-.23,1.31-.39,2s-.32,1.21-.5,1.8A33.82,33.82,0,0,1,269.68,58.46Z"/><polygon class="cls-2" points="289.98 37.52 289.98 37.52 289.98 37.52 289.98 37.52"/><path class="cls-2" d="M234.58,69a43.62,43.62,0,0,0,15.33,3.36c.61,0,1.22,0,1.82,0a41.47,41.47,0,0,0,17.74-4A42.2,42.2,0,0,0,286.13,54.1l.16-.25A36.82,36.82,0,0,0,289.17,49a14.45,14.45,0,0,0,1.22-2.74c.34-.86.66-1.72.93-2.59a32.29,32.29,0,0,0,1.8-10.26A40.33,40.33,0,0,0,292.7,28c-.1-.93-.62-1.34-1.36-1.32-.91,0-1.43.69-1.26,1.72a28.68,28.68,0,0,1,0,9.2c-.11.65-.23,1.31-.39,2s-.32,1.21-.5,1.8c-.2.79-.45,1.56-.71,2.32q-.62,1.64-1.38,3.24a47.61,47.61,0,0,1-3.23,5.66A37.14,37.14,0,0,1,258,69.06l-1.06.16a44.14,44.14,0,0,1-6.3.47,37.92,37.92,0,0,1-12.14-2c-4-1.38-7.29-3.64-10.88-5.82.17,1.25.36,2.51.65,3.73a40.15,40.15,0,0,0,6,3.24"/><path class="cls-2" d="M298.86,67a1.26,1.26,0,0,0-.22-1.82,1.22,1.22,0,0,0-.93-.31,1.44,1.44,0,0,0-.9.45c-.23.24-.43.52-.65.78A56.85,56.85,0,0,1,271.3,83.88a54.57,54.57,0,0,1-6.47,1.93c-.94.22-1.88.41-2.82.58-1.1.19-1.62.79-1.46,1.63s.81,1.25,1.85,1c3-.69,6-1.43,8.66-2.07,2.82-1.23,5.35-2.21,7.76-3.42A59.17,59.17,0,0,0,296.2,70.21C297.13,69.18,298,68.11,298.86,67Z"/><path class="cls-2" d="M237,42c5.69,6.14,12.55,7.86,20.61,5.67,1-.46,2-.93,3-1.45a1.35,1.35,0,1,0-1.29-2.34,16.22,16.22,0,0,1-10.44,1.85,17.23,17.23,0,0,1-10.48-6.13c-1.77-2-3.79-3.84-5.72-5.73a1.26,1.26,0,0,0-1.61-.22,1.18,1.18,0,0,0-.63,1.36,2.73,2.73,0,0,0,.7,1.06C233.07,38.09,235.08,40,237,42Z"/><path class="cls-2" d="M299.09,63.63a1.3,1.3,0,0,0,2.36,0c1.44-2.31,2.91-4.6,4.19-7a39.62,39.62,0,0,0,3.65-10.06,2,2,0,0,0-.25-1.48,1.64,1.64,0,0,0-1.29-.4c-.61.05-.86.6-1,1.17-.68,2.18-1.29,4.39-2.1,6.53a40.34,40.34,0,0,1-5.22,9.5C298.94,62.47,298.69,63.08,299.09,63.63Z"/><path class="cls-2" d="M270.23,92.76c2.57-.91,5.15-1.78,7.65-2.86A39.89,39.89,0,0,0,287,84.31a2,2,0,0,0,.73-1.31,1.66,1.66,0,0,0-.75-1.12c-.51-.34-1.06-.07-1.55.27-1.89,1.28-3.75,2.63-5.71,3.79a40.85,40.85,0,0,1-10,4.17c-.74.2-1.32.52-1.35,1.2A1.31,1.31,0,0,0,270.23,92.76Z"/><path class="cls-2" d="M290,86c-.51-.34-1.06-.07-1.55.26-1.89,1.29-3.75,2.64-5.71,3.8a40.53,40.53,0,0,1-10,4.17c-.74.2-1.32.52-1.35,1.2a1.3,1.3,0,0,0,1.87,1.44c2.57-.9,5.15-1.78,7.65-2.85a39.58,39.58,0,0,0,9.12-5.6,2,2,0,0,0,.73-1.3A1.66,1.66,0,0,0,290,86Z"/><path class="cls-2" d="M285.24,94.94a33.13,33.13,0,0,1-8.3,3.35c-.61.16-1.09.42-1.11,1a1.1,1.1,0,0,0,1.57,1.2c2.13-.73,4.27-1.43,6.34-2.29a32.65,32.65,0,0,0,7.55-4.52,1.59,1.59,0,0,0,.59-1.07,1.38,1.38,0,0,0-.63-.92c-.43-.29-.88-.07-1.28.2C288.4,92.91,286.87,94,285.24,94.94Z"/><path class="cls-2" d="M292.57,96.38c-.34-.23-.71,0-1,.18-1.28.87-2.54,1.79-3.87,2.58A27.66,27.66,0,0,1,280.9,102c-.5.14-.89.35-.92.82a.88.88,0,0,0,1.27,1c1.73-.61,3.48-1.21,5.17-1.94A27,27,0,0,0,292.59,98a1.38,1.38,0,0,0,.49-.89A1.15,1.15,0,0,0,292.57,96.38Z"/><path class="cls-2" d="M311.55,76.83c-.65,1.49-1.28,3-1.88,4.51a1.31,1.31,0,0,0,.73,1.81,1.33,1.33,0,0,0,1.76-.86,25.19,25.19,0,0,0,2-5.14.45.45,0,0,0,0-.23c-.1-.38-.84-.79-1.16-.89A1.2,1.2,0,0,0,311.55,76.83Z"/><path class="cls-2" d="M308.71,71.49A52.73,52.73,0,0,0,304.24,79c-1.19,2.6-2.1,5.37-3.1,8.06-.37,1-.05,1.7.76,2s1.47-.17,1.81-1.23a53.18,53.18,0,0,1,3.69-8.9,56.85,56.85,0,0,1,20.84-22.34,9.64,9.64,0,0,0,.86-.55,1.29,1.29,0,0,0,.38-1.79,1.25,1.25,0,0,0-1.78-.45c-1.2.7-2.38,1.43-3.52,2.22A59,59,0,0,0,308.71,71.49Z"/><path class="cls-2" d="M272.43,34.46c-2,8.67-7.48,14.4-16.1,16.59a24.06,24.06,0,0,1-5.95.77c-6.06,0-11.45-2.54-15.91-7.49q-.74-.82-1.5-1.62l-.42.74h0c-.21.36-.42.71-.64,1.06l-.37.59.44.49c5.11,5.87,11.42,8.82,18.82,8.82a29.63,29.63,0,0,0,3.35-.2,22.74,22.74,0,0,0,14.36-7.14c7-7.43,8.9-16.07,5.58-25.78-.11-.31-.2-.62-.28-.93a11.85,11.85,0,0,1-.32-3.51,15.75,15.75,0,0,1,.52-3.1l-1.58-.71-.85-.37-.05,0a11.48,11.48,0,0,0-.31,1.15c-.09.43-.2.85-.32,1.37L269,12.86a1.94,1.94,0,0,1-.58-1.56l-1.76-.79L266,10.2c-.56,1.67-.12,3,1.33,4.8C272,20.69,274.12,27.17,272.43,34.46Z"/><path class="cls-2" d="M292.21,50l0,.05q-.12.16-.24.36c-.84,1.42-1.64,2.87-2.51,4.29a50.56,50.56,0,0,1-16.59,15.43A41.5,41.5,0,0,1,258.67,75a53,53,0,0,1-7.54.55,44.54,44.54,0,0,1-15-2.51c.35,1,.68,2.07,1,3.09a46.84,46.84,0,0,0,14.05,2.17,47.35,47.35,0,0,0,7.1-.54,54.08,54.08,0,0,0,8.75-2.07,47.27,47.27,0,0,0,7.16-3.18q.67-.36,1.32-.75a1.62,1.62,0,0,0,.35-.27L275,72l.9-.57a57.58,57.58,0,0,0,12.55-10.75,38.38,38.38,0,0,0,4.82-7c.29-.49.57-1,.85-1.47A55.89,55.89,0,0,0,297,46.3c.25-.61.48-1.21.71-1.82.07-.26.13-.51.2-.76a25,25,0,0,0,.78-3.29,1.11,1.11,0,0,0,0-.48c-.13-.38-.92-.69-1.28-.75a1,1,0,0,0-.54,0,1.33,1.33,0,0,0-.7.68,4,4,0,0,0-.29,1,30.66,30.66,0,0,1-2.06,6q-.71,1.55-1.5,3A.7.7,0,0,1,292.21,50Z"/><path class="cls-2" d="M269.91,80.62A52.52,52.52,0,0,0,280,75.86a53.31,53.31,0,0,0,19.11-19.77A55.89,55.89,0,0,0,302,50.15c.25-.61.49-1.21.71-1.82.07-.26.13-.51.2-.76a25,25,0,0,0,.78-3.29,1.11,1.11,0,0,0,0-.48c-.13-.38-.92-.7-1.28-.76a1.11,1.11,0,0,0-.54,0,1.38,1.38,0,0,0-.7.69,4,4,0,0,0-.29,1,30.66,30.66,0,0,1-2.06,6,50.6,50.6,0,0,1-21,23.26,54.35,54.35,0,0,1-20.48,7,49.16,49.16,0,0,1-10.43.21,72.65,72.65,0,0,1-7.5-.93c-.47-.09-.92-.2-1.32-.31-1.08-.29-1.85-.65-2-1.08.35,1,.68,2.07,1,3.09,1.37.43,2.76.77,4.14,1.14l1.34.35a40.31,40.31,0,0,0,8.57.68,48.62,48.62,0,0,0,6.57-.47c1.35-.19,2.7-.43,4-.72a53.94,53.94,0,0,0,5.24-1.43"/><path class="cls-2" d="M316.87,85.88c1.88-4.85,5.31-9,9-12.63a41.34,41.34,0,0,1,6.22-5,40.25,40.25,0,0,1,16.52-6.47,31.91,31.91,0,0,1,3.22-.32c-.22-.3-.45-.59-.67-.88-.4-.54-.82-1.06-1.23-1.56A45,45,0,0,0,338.2,62a40.38,40.38,0,0,0-12.63,7.9A45.24,45.24,0,0,0,322,73.58a42.93,42.93,0,0,0-7.17,11,2.56,2.56,0,0,1-.11.24,41.29,41.29,0,0,0-2.77,9.93,44.24,44.24,0,0,0,.17,13.83,42.07,42.07,0,0,0,1.85,6.93,21.11,21.11,0,0,0,1.87-1.34h.06l.29-.24a37,37,0,0,1-1.59-6.46,38.57,38.57,0,0,1-.41-7.09A43.78,43.78,0,0,1,316.87,85.88Z"/><path class="cls-2" d="M238.42,57.69l.22.09a29.46,29.46,0,0,0,9.5,2.4h.16a1.31,1.31,0,0,0,1.36-1.74,1.29,1.29,0,0,0-.16-.31,1.64,1.64,0,0,0-1.32-.65,28.17,28.17,0,0,1-8.86-2.34c-4.9-2.24-8.12-6.11-11.92-9.76q-1-1.05-2.1-2c-.84-.76-1.7-1.49-2.6-2.17l-1.18.8-.53.36-.66.45.92.68a81.42,81.42,0,0,1,8.06,7.72A29.54,29.54,0,0,0,238.42,57.69Z"/><path class="cls-2" d="M310.39,115.24a32,32,0,0,0-.9-3.63,26.13,26.13,0,0,1-.71-2.87c-.08-.5-.13-1-.17-1.51a8.28,8.28,0,0,1-1.28.83l0,0h0l0,0h-.06l0,0h0l-.64.29,1.17,6.26c.09.42.18.84.28,1.26.05.2.16.93.38,1h1.59c.11,0,.48,0,.55-.07a.29.29,0,0,0,0-.16A8.33,8.33,0,0,0,310.39,115.24Z"/><path class="cls-2" d="M251.48,27.88a75.82,75.82,0,0,0-16.06-14.27,60.76,60.76,0,0,0-6-3.63,46.28,46.28,0,0,0-6.66-2.47,2,2,0,0,0-.4-.08,1.34,1.34,0,0,0-1.42,1,1.39,1.39,0,0,0,1,1.75c1.5.52,3.09,1,4.59,1.61a33.65,33.65,0,0,1,4.08,2.13,67,67,0,0,1,7.81,5.25,70.53,70.53,0,0,1,5.76,5c1.8,1.75,3.47,3.64,5.18,5.48a1.67,1.67,0,0,0,1.23.64,2,2,0,0,0,.41-.05A1.41,1.41,0,0,0,251.48,27.88Z"/><path class="cls-2" d="M227,51.25h-.11c-1.68.09-3.36.19-5,.33a1.38,1.38,0,1,0,.14,2.75h.13c1.61-.09,3.21-.19,4.82-.3a10.75,10.75,0,0,0,1.13-.27,4.48,4.48,0,0,0,.23-1.51,1.21,1.21,0,0,0-1.3-1"/><path class="cls-2" d="M225.71,46.62a1.83,1.83,0,0,0-.4.05l-2.17.52c-.92.22-1.83.45-2.74.7a1.36,1.36,0,0,0-1.05,1.72,1.3,1.3,0,0,0,1.32,1,2.1,2.1,0,0,0,.48-.06l2.07-.5.69-.17,1.93-.48a2.7,2.7,0,0,0,.52-.21l.54-.25a4.53,4.53,0,0,0,0-1.52,1.17,1.17,0,0,0-1.16-.79"/><path class="cls-2" d="M207.15,33.92c-.88,0-1.27,1-1.39,1.72a.61.61,0,0,0,0,.27.56.56,0,0,0,.33.27c1.89.85,3.9,1.28,5.83,2a35.78,35.78,0,0,1,4.76,2.18l.81.46a1.83,1.83,0,0,0,.91.27,1.31,1.31,0,0,0,1.16-.69l0,0a1.44,1.44,0,0,0,.15-1,1.58,1.58,0,0,0-.92-1c-2.19-1.06-4.38-2.14-6.63-3.06A41.09,41.09,0,0,0,207.64,34a1.67,1.67,0,0,0-.49-.08"/><path class="cls-2" d="M234.84,6.41c-.86-.46-1.75-.88-2.63-1.3a1.48,1.48,0,0,0-.62-.17,1.3,1.3,0,0,0-1.3.79,1.31,1.31,0,0,0,.5,1.71c.05,0,1.64.8,3.48,1.78l2.42,1.36a13.71,13.71,0,0,1,2.89,2.06l.44.28a1.59,1.59,0,0,0,.83.25,1.31,1.31,0,0,0,1.1-.6,1.37,1.37,0,0,0-.38-1.93,3.47,3.47,0,0,0-.37-.26q-1-.72-2.13-1.41"/><path class="cls-2" d="M259.86.06a1.24,1.24,0,0,0-.37-.06,1.31,1.31,0,0,0-1.16.86c-.65,1.48-1.29,3-1.9,4.46-1.16,2.32-2.08,4.76-3.14,7.2-.09-.07-.23-.17-.36-.29Q251,10.54,249,9c-.67-.52-1.35-1-2-1.54s-1.39-1-2.11-1.55a16.06,16.06,0,0,0-2.37-1.31l-2.53-1.22a1.77,1.77,0,0,0-.69-.16A1.33,1.33,0,0,0,238,4a1.38,1.38,0,0,0,.78,1.87l2.86,1.41a20.37,20.37,0,0,1,2.39,1.46l.82.68,0,0a1.8,1.8,0,0,0,.24.2L252.93,16a1.91,1.91,0,0,0,1.27.62c.6,0,1.09-.47,1.36-1.37.21-.68.38-1.36.6-2a50.49,50.49,0,0,1,2.73-6.62l0-.07v0c.1-.24.21-.47.31-.71L260,4c.22-.51.46-1,.66-1.54a7.55,7.55,0,0,0,.29-.84c.09-.32.25-.63,0-.89A2.72,2.72,0,0,0,259.86.06ZM245.2,7.12a1,1,0,0,1-.07.15,1.81,1.81,0,0,1-.19.29l-.12.13h0l.12-.13a1.81,1.81,0,0,0,.19-.29,1,1,0,0,0,.07-.15l0-.14Zm13.15.13h0Zm-1.26.14a1.33,1.33,0,0,1-.84-1,1.33,1.33,0,0,0,.84,1,1.7,1.7,0,0,0,.52.1l.2,0-.2,0A1.7,1.7,0,0,1,257.09,7.39Zm1.09,0,0,0Zm-.18.08-.09,0Z"/><path class="cls-2" d="M267.52,20a56.61,56.61,0,0,0-4.25-5.45,4.86,4.86,0,0,1-1.18-2.89c-.09-1.74.77-3.16,1.46-4.7,0-.08.07-.17.11-.25A4,4,0,0,0,263.93,5c0-.44-.56-.78-.95-.9a1.22,1.22,0,0,0-.37,0,1.28,1.28,0,0,0-1.16.86l-.11.24a23.67,23.67,0,0,0-2,4.93,7,7,0,0,0,1,5.17,48,48,0,0,0,3.28,4,16.71,16.71,0,0,1,.08,21.11,1.39,1.39,0,0,0,.09,2.07,1.28,1.28,0,0,0,.83.31,1.63,1.63,0,0,0,1.23-.65A19.34,19.34,0,0,0,267.52,20Zm-6.59-8.55a1.28,1.28,0,0,0,.82-.5A1.28,1.28,0,0,1,260.93,11.48Z"/></svg>